<mxfile host="app.diagrams.net" modified="2023-08-14T09:36:43.769Z" agent="Mozilla/5.0 (Windows NT 10.0; Win64; x64) AppleWebKit/537.36 (KHTML, like Gecko) Chrome/114.0.0.0 Safari/537.36" etag="90Q5Dh69C2h81nH887WA" version="21.6.6" type="github">
  <diagram id="aQzSASs5JfguMSmo7XsH" name="Page-1">
    <mxGraphModel dx="2074" dy="1124" grid="1" gridSize="10" guides="1" tooltips="1" connect="1" arrows="1" fold="1" page="1" pageScale="1" pageWidth="1169" pageHeight="1654" math="0" shadow="0">
      <root>
        <mxCell id="0" />
        <mxCell id="1" parent="0" />
        <mxCell id="YnuXroIP8cR0UTHa-X0N-111" value="" style="group" vertex="1" connectable="0" parent="1">
          <mxGeometry x="28" y="48" width="1120" height="1190" as="geometry" />
        </mxCell>
        <mxCell id="U-hazBpoH-VfoaQq2mO9-1" value="&lt;b&gt;海康平台&lt;/b&gt;" style="shape=umlLifeline;perimeter=lifelinePerimeter;whiteSpace=wrap;html=1;container=1;dropTarget=0;collapsible=0;recursiveResize=0;outlineConnect=0;portConstraint=eastwest;newEdgeStyle={&quot;edgeStyle&quot;:&quot;elbowEdgeStyle&quot;,&quot;elbow&quot;:&quot;vertical&quot;,&quot;curved&quot;:0,&quot;rounded&quot;:0};fillColor=#FBFF94;" parent="YnuXroIP8cR0UTHa-X0N-111" vertex="1">
          <mxGeometry x="280" y="50" width="80" height="1100" as="geometry" />
        </mxCell>
        <mxCell id="U-hazBpoH-VfoaQq2mO9-3" value="&lt;b&gt;海康集成服务&lt;/b&gt;" style="shape=umlLifeline;perimeter=lifelinePerimeter;whiteSpace=wrap;html=1;container=1;dropTarget=0;collapsible=0;recursiveResize=0;outlineConnect=0;portConstraint=eastwest;newEdgeStyle={&quot;edgeStyle&quot;:&quot;elbowEdgeStyle&quot;,&quot;elbow&quot;:&quot;vertical&quot;,&quot;curved&quot;:0,&quot;rounded&quot;:0};fillColor=#8AFF8E;" parent="YnuXroIP8cR0UTHa-X0N-111" vertex="1">
          <mxGeometry x="490" y="50" width="80" height="1120" as="geometry" />
        </mxCell>
        <mxCell id="YnuXroIP8cR0UTHa-X0N-1" value="" style="html=1;points=[];perimeter=orthogonalPerimeter;outlineConnect=0;targetShapes=umlLifeline;portConstraint=eastwest;newEdgeStyle={&quot;edgeStyle&quot;:&quot;elbowEdgeStyle&quot;,&quot;elbow&quot;:&quot;vertical&quot;,&quot;curved&quot;:0,&quot;rounded&quot;:0};fillColor=#8AFF8E;" vertex="1" parent="U-hazBpoH-VfoaQq2mO9-3">
          <mxGeometry x="35" y="90" width="10" height="970" as="geometry" />
        </mxCell>
        <mxCell id="YnuXroIP8cR0UTHa-X0N-53" value="" style="html=1;points=[];perimeter=orthogonalPerimeter;outlineConnect=0;targetShapes=umlLifeline;portConstraint=eastwest;newEdgeStyle={&quot;edgeStyle&quot;:&quot;elbowEdgeStyle&quot;,&quot;elbow&quot;:&quot;vertical&quot;,&quot;curved&quot;:0,&quot;rounded&quot;:0};fillColor=#8AFF8E;" vertex="1" parent="U-hazBpoH-VfoaQq2mO9-3">
          <mxGeometry x="40" y="667" width="10" height="16" as="geometry" />
        </mxCell>
        <mxCell id="YnuXroIP8cR0UTHa-X0N-54" value="处理子系消警" style="html=1;align=left;spacingLeft=2;endArrow=block;rounded=0;edgeStyle=orthogonalEdgeStyle;curved=0;rounded=0;" edge="1" target="YnuXroIP8cR0UTHa-X0N-53" parent="U-hazBpoH-VfoaQq2mO9-3">
          <mxGeometry x="0.0118" relative="1" as="geometry">
            <mxPoint x="45" y="642" as="sourcePoint" />
            <Array as="points">
              <mxPoint x="75" y="672" />
            </Array>
            <mxPoint as="offset" />
          </mxGeometry>
        </mxCell>
        <mxCell id="YnuXroIP8cR0UTHa-X0N-68" value="" style="html=1;points=[];perimeter=orthogonalPerimeter;outlineConnect=0;targetShapes=umlLifeline;portConstraint=eastwest;newEdgeStyle={&quot;edgeStyle&quot;:&quot;elbowEdgeStyle&quot;,&quot;elbow&quot;:&quot;vertical&quot;,&quot;curved&quot;:0,&quot;rounded&quot;:0};fillColor=#8AFF8E;" vertex="1" parent="U-hazBpoH-VfoaQq2mO9-3">
          <mxGeometry x="40" y="804" width="10" height="40" as="geometry" />
        </mxCell>
        <mxCell id="YnuXroIP8cR0UTHa-X0N-69" value="&lt;pre style=&quot;background-color:#2b2b2b;color:#a9b7c6;font-family:&#39;宋体&#39;,monospace;font-size:9.8pt;&quot;&gt;消警，改变状态并设置事件停止时间&lt;/pre&gt;" style="html=1;align=left;spacingLeft=2;endArrow=block;rounded=0;edgeStyle=orthogonalEdgeStyle;curved=0;rounded=0;" edge="1" target="YnuXroIP8cR0UTHa-X0N-68" parent="U-hazBpoH-VfoaQq2mO9-3">
          <mxGeometry relative="1" as="geometry">
            <mxPoint x="45" y="784" as="sourcePoint" />
            <Array as="points">
              <mxPoint x="75" y="814" />
            </Array>
          </mxGeometry>
        </mxCell>
        <mxCell id="YnuXroIP8cR0UTHa-X0N-70" value="" style="html=1;points=[];perimeter=orthogonalPerimeter;outlineConnect=0;targetShapes=umlLifeline;portConstraint=eastwest;newEdgeStyle={&quot;edgeStyle&quot;:&quot;elbowEdgeStyle&quot;,&quot;elbow&quot;:&quot;vertical&quot;,&quot;curved&quot;:0,&quot;rounded&quot;:0};fillColor=#8AFF8E;" vertex="1" parent="U-hazBpoH-VfoaQq2mO9-3">
          <mxGeometry x="40" y="913" width="10" height="40" as="geometry" />
        </mxCell>
        <mxCell id="YnuXroIP8cR0UTHa-X0N-71" value="处理防区旁路" style="html=1;align=left;spacingLeft=2;endArrow=block;rounded=0;edgeStyle=orthogonalEdgeStyle;curved=0;rounded=0;" edge="1" target="YnuXroIP8cR0UTHa-X0N-70" parent="U-hazBpoH-VfoaQq2mO9-3">
          <mxGeometry x="0.0118" relative="1" as="geometry">
            <mxPoint x="45" y="893" as="sourcePoint" />
            <Array as="points">
              <mxPoint x="75" y="923" />
            </Array>
            <mxPoint as="offset" />
          </mxGeometry>
        </mxCell>
        <mxCell id="YnuXroIP8cR0UTHa-X0N-76" value="" style="html=1;points=[];perimeter=orthogonalPerimeter;outlineConnect=0;targetShapes=umlLifeline;portConstraint=eastwest;newEdgeStyle={&quot;edgeStyle&quot;:&quot;elbowEdgeStyle&quot;,&quot;elbow&quot;:&quot;vertical&quot;,&quot;curved&quot;:0,&quot;rounded&quot;:0};fillColor=#8AFF8E;" vertex="1" parent="U-hazBpoH-VfoaQq2mO9-3">
          <mxGeometry x="40" y="1014" width="10" height="40" as="geometry" />
        </mxCell>
        <mxCell id="YnuXroIP8cR0UTHa-X0N-77" value="处理防区旁路&lt;br&gt;恢复" style="html=1;align=left;spacingLeft=2;endArrow=block;rounded=0;edgeStyle=orthogonalEdgeStyle;curved=0;rounded=0;" edge="1" target="YnuXroIP8cR0UTHa-X0N-76" parent="U-hazBpoH-VfoaQq2mO9-3">
          <mxGeometry relative="1" as="geometry">
            <mxPoint x="45" y="994" as="sourcePoint" />
            <Array as="points">
              <mxPoint x="75" y="1024" />
            </Array>
          </mxGeometry>
        </mxCell>
        <mxCell id="YnuXroIP8cR0UTHa-X0N-79" value="" style="html=1;points=[];perimeter=orthogonalPerimeter;outlineConnect=0;targetShapes=umlLifeline;portConstraint=eastwest;newEdgeStyle={&quot;edgeStyle&quot;:&quot;elbowEdgeStyle&quot;,&quot;elbow&quot;:&quot;vertical&quot;,&quot;curved&quot;:0,&quot;rounded&quot;:0};fillColor=#8AFF8E;" vertex="1" parent="U-hazBpoH-VfoaQq2mO9-3">
          <mxGeometry x="40" y="160" width="10" height="40" as="geometry" />
        </mxCell>
        <mxCell id="YnuXroIP8cR0UTHa-X0N-80" value="处理防区报警事件" style="html=1;align=left;spacingLeft=2;endArrow=block;rounded=0;edgeStyle=orthogonalEdgeStyle;curved=0;rounded=0;" edge="1" target="YnuXroIP8cR0UTHa-X0N-79" parent="U-hazBpoH-VfoaQq2mO9-3">
          <mxGeometry x="0.0118" relative="1" as="geometry">
            <mxPoint x="45" y="140" as="sourcePoint" />
            <Array as="points">
              <mxPoint x="75" y="170" />
            </Array>
            <mxPoint as="offset" />
          </mxGeometry>
        </mxCell>
        <mxCell id="YnuXroIP8cR0UTHa-X0N-81" value="" style="html=1;points=[];perimeter=orthogonalPerimeter;outlineConnect=0;targetShapes=umlLifeline;portConstraint=eastwest;newEdgeStyle={&quot;edgeStyle&quot;:&quot;elbowEdgeStyle&quot;,&quot;elbow&quot;:&quot;vertical&quot;,&quot;curved&quot;:0,&quot;rounded&quot;:0};fillColor=#8AFF8E;" vertex="1" parent="U-hazBpoH-VfoaQq2mO9-3">
          <mxGeometry x="40" y="225" width="10" height="20" as="geometry" />
        </mxCell>
        <mxCell id="YnuXroIP8cR0UTHa-X0N-82" value="创建联动事件记录" style="html=1;align=left;spacingLeft=2;endArrow=block;rounded=0;edgeStyle=orthogonalEdgeStyle;curved=0;rounded=0;" edge="1" target="YnuXroIP8cR0UTHa-X0N-81" parent="U-hazBpoH-VfoaQq2mO9-3">
          <mxGeometry relative="1" as="geometry">
            <mxPoint x="45" y="205" as="sourcePoint" />
            <Array as="points">
              <mxPoint x="75" y="235" />
            </Array>
          </mxGeometry>
        </mxCell>
        <mxCell id="U-hazBpoH-VfoaQq2mO9-4" value="&lt;b&gt;告警服务&lt;/b&gt;" style="shape=umlLifeline;perimeter=lifelinePerimeter;whiteSpace=wrap;html=1;container=1;dropTarget=0;collapsible=0;recursiveResize=0;outlineConnect=0;portConstraint=eastwest;newEdgeStyle={&quot;edgeStyle&quot;:&quot;elbowEdgeStyle&quot;,&quot;elbow&quot;:&quot;vertical&quot;,&quot;curved&quot;:0,&quot;rounded&quot;:0};fillColor=#FFBE7D;" parent="YnuXroIP8cR0UTHa-X0N-111" vertex="1">
          <mxGeometry x="720" y="50" width="80" height="1100" as="geometry" />
        </mxCell>
        <mxCell id="YnuXroIP8cR0UTHa-X0N-83" value="" style="html=1;points=[];perimeter=orthogonalPerimeter;outlineConnect=0;targetShapes=umlLifeline;portConstraint=eastwest;newEdgeStyle={&quot;edgeStyle&quot;:&quot;elbowEdgeStyle&quot;,&quot;elbow&quot;:&quot;vertical&quot;,&quot;curved&quot;:0,&quot;rounded&quot;:0};fillColor=#FFBE7D;" vertex="1" parent="U-hazBpoH-VfoaQq2mO9-4">
          <mxGeometry x="35" y="249" width="10" height="301" as="geometry" />
        </mxCell>
        <mxCell id="YnuXroIP8cR0UTHa-X0N-86" value="" style="html=1;points=[];perimeter=orthogonalPerimeter;outlineConnect=0;targetShapes=umlLifeline;portConstraint=eastwest;newEdgeStyle={&quot;edgeStyle&quot;:&quot;elbowEdgeStyle&quot;,&quot;elbow&quot;:&quot;vertical&quot;,&quot;curved&quot;:0,&quot;rounded&quot;:0};fillColor=#FFBE7D;" vertex="1" parent="U-hazBpoH-VfoaQq2mO9-4">
          <mxGeometry x="40" y="279" width="10" height="61" as="geometry" />
        </mxCell>
        <mxCell id="YnuXroIP8cR0UTHa-X0N-87" value="执行告警动作" style="html=1;align=left;spacingLeft=2;endArrow=block;rounded=0;edgeStyle=orthogonalEdgeStyle;curved=0;rounded=0;" edge="1" target="YnuXroIP8cR0UTHa-X0N-86" parent="U-hazBpoH-VfoaQq2mO9-4">
          <mxGeometry relative="1" as="geometry">
            <mxPoint x="45" y="259" as="sourcePoint" />
            <Array as="points">
              <mxPoint x="75" y="289" />
            </Array>
          </mxGeometry>
        </mxCell>
        <mxCell id="U-hazBpoH-VfoaQq2mO9-5" value="" style="shape=umlLifeline;perimeter=lifelinePerimeter;whiteSpace=wrap;html=1;container=1;dropTarget=0;collapsible=0;recursiveResize=0;outlineConnect=0;portConstraint=eastwest;newEdgeStyle={&quot;edgeStyle&quot;:&quot;elbowEdgeStyle&quot;,&quot;elbow&quot;:&quot;vertical&quot;,&quot;curved&quot;:0,&quot;rounded&quot;:0};participant=umlActor;" parent="YnuXroIP8cR0UTHa-X0N-111" vertex="1">
          <mxGeometry x="100" y="50" width="30" height="1100" as="geometry" />
        </mxCell>
        <mxCell id="U-hazBpoH-VfoaQq2mO9-6" value="WEB" style="text;html=1;align=center;verticalAlign=middle;resizable=0;points=[];autosize=1;strokeColor=none;fillColor=none;" parent="YnuXroIP8cR0UTHa-X0N-111" vertex="1">
          <mxGeometry x="90" y="20" width="50" height="30" as="geometry" />
        </mxCell>
        <mxCell id="U-hazBpoH-VfoaQq2mO9-7" value="&lt;b&gt;视频服务&lt;/b&gt;" style="shape=umlLifeline;perimeter=lifelinePerimeter;whiteSpace=wrap;html=1;container=1;dropTarget=0;collapsible=0;recursiveResize=0;outlineConnect=0;portConstraint=eastwest;newEdgeStyle={&quot;edgeStyle&quot;:&quot;elbowEdgeStyle&quot;,&quot;elbow&quot;:&quot;vertical&quot;,&quot;curved&quot;:0,&quot;rounded&quot;:0};fillColor=#61FFEA;" parent="YnuXroIP8cR0UTHa-X0N-111" vertex="1">
          <mxGeometry x="940" y="50" width="80" height="1100" as="geometry" />
        </mxCell>
        <mxCell id="YnuXroIP8cR0UTHa-X0N-64" value="" style="html=1;points=[];perimeter=orthogonalPerimeter;outlineConnect=0;targetShapes=umlLifeline;portConstraint=eastwest;newEdgeStyle={&quot;edgeStyle&quot;:&quot;elbowEdgeStyle&quot;,&quot;elbow&quot;:&quot;vertical&quot;,&quot;curved&quot;:0,&quot;rounded&quot;:0};fillColor=#61FFEA;" vertex="1" parent="U-hazBpoH-VfoaQq2mO9-7">
          <mxGeometry x="35" y="697" width="10" height="80" as="geometry" />
        </mxCell>
        <mxCell id="YnuXroIP8cR0UTHa-X0N-88" value="" style="html=1;points=[];perimeter=orthogonalPerimeter;outlineConnect=0;targetShapes=umlLifeline;portConstraint=eastwest;newEdgeStyle={&quot;edgeStyle&quot;:&quot;elbowEdgeStyle&quot;,&quot;elbow&quot;:&quot;vertical&quot;,&quot;curved&quot;:0,&quot;rounded&quot;:0};fillColor=#61FFEA;" vertex="1" parent="U-hazBpoH-VfoaQq2mO9-7">
          <mxGeometry x="40" y="727" width="10" height="40" as="geometry" />
        </mxCell>
        <mxCell id="YnuXroIP8cR0UTHa-X0N-89" value="预置位操作" style="html=1;align=left;spacingLeft=2;endArrow=block;rounded=0;edgeStyle=orthogonalEdgeStyle;curved=0;rounded=0;" edge="1" target="YnuXroIP8cR0UTHa-X0N-88" parent="U-hazBpoH-VfoaQq2mO9-7">
          <mxGeometry relative="1" as="geometry">
            <mxPoint x="45" y="707" as="sourcePoint" />
            <Array as="points">
              <mxPoint x="75" y="737" />
            </Array>
          </mxGeometry>
        </mxCell>
        <mxCell id="YnuXroIP8cR0UTHa-X0N-90" value="" style="html=1;points=[];perimeter=orthogonalPerimeter;outlineConnect=0;targetShapes=umlLifeline;portConstraint=eastwest;newEdgeStyle={&quot;edgeStyle&quot;:&quot;elbowEdgeStyle&quot;,&quot;elbow&quot;:&quot;vertical&quot;,&quot;curved&quot;:0,&quot;rounded&quot;:0};fillColor=#61FFEA;" vertex="1" parent="U-hazBpoH-VfoaQq2mO9-7">
          <mxGeometry x="35" y="289" width="10" height="50" as="geometry" />
        </mxCell>
        <mxCell id="YnuXroIP8cR0UTHa-X0N-93" value="" style="html=1;points=[];perimeter=orthogonalPerimeter;outlineConnect=0;targetShapes=umlLifeline;portConstraint=eastwest;newEdgeStyle={&quot;edgeStyle&quot;:&quot;elbowEdgeStyle&quot;,&quot;elbow&quot;:&quot;vertical&quot;,&quot;curved&quot;:0,&quot;rounded&quot;:0};fillColor=#61FFEA;" vertex="1" parent="U-hazBpoH-VfoaQq2mO9-7">
          <mxGeometry x="40" y="309" width="10" height="20" as="geometry" />
        </mxCell>
        <mxCell id="YnuXroIP8cR0UTHa-X0N-94" value="预置位操作" style="html=1;align=left;spacingLeft=2;endArrow=block;rounded=0;edgeStyle=orthogonalEdgeStyle;curved=0;rounded=0;" edge="1" target="YnuXroIP8cR0UTHa-X0N-93" parent="U-hazBpoH-VfoaQq2mO9-7">
          <mxGeometry relative="1" as="geometry">
            <mxPoint x="45" y="289" as="sourcePoint" />
            <Array as="points">
              <mxPoint x="75" y="319" />
            </Array>
          </mxGeometry>
        </mxCell>
        <mxCell id="YnuXroIP8cR0UTHa-X0N-103" value="" style="html=1;points=[];perimeter=orthogonalPerimeter;outlineConnect=0;targetShapes=umlLifeline;portConstraint=eastwest;newEdgeStyle={&quot;edgeStyle&quot;:&quot;elbowEdgeStyle&quot;,&quot;elbow&quot;:&quot;vertical&quot;,&quot;curved&quot;:0,&quot;rounded&quot;:0};fillColor=#61FFEA;" vertex="1" parent="U-hazBpoH-VfoaQq2mO9-7">
          <mxGeometry x="35" y="397" width="10" height="70" as="geometry" />
        </mxCell>
        <mxCell id="YnuXroIP8cR0UTHa-X0N-106" value="" style="html=1;points=[];perimeter=orthogonalPerimeter;outlineConnect=0;targetShapes=umlLifeline;portConstraint=eastwest;newEdgeStyle={&quot;edgeStyle&quot;:&quot;elbowEdgeStyle&quot;,&quot;elbow&quot;:&quot;vertical&quot;,&quot;curved&quot;:0,&quot;rounded&quot;:0};fillColor=#61FFEA;" vertex="1" parent="U-hazBpoH-VfoaQq2mO9-7">
          <mxGeometry x="40" y="407" width="10" height="40" as="geometry" />
        </mxCell>
        <mxCell id="YnuXroIP8cR0UTHa-X0N-107" value="录像、抓图操作" style="html=1;align=left;spacingLeft=2;endArrow=block;rounded=0;edgeStyle=orthogonalEdgeStyle;curved=0;rounded=0;" edge="1" parent="U-hazBpoH-VfoaQq2mO9-7">
          <mxGeometry relative="1" as="geometry">
            <mxPoint x="45" y="402" as="sourcePoint" />
            <Array as="points">
              <mxPoint x="75" y="432" />
            </Array>
            <mxPoint x="50" y="432" as="targetPoint" />
          </mxGeometry>
        </mxCell>
        <mxCell id="YnuXroIP8cR0UTHa-X0N-2" value="防区入侵事件" style="html=1;verticalAlign=bottom;startArrow=oval;endArrow=block;startSize=8;edgeStyle=elbowEdgeStyle;elbow=vertical;curved=0;rounded=0;" edge="1" target="YnuXroIP8cR0UTHa-X0N-1" parent="YnuXroIP8cR0UTHa-X0N-111" source="U-hazBpoH-VfoaQq2mO9-1">
          <mxGeometry relative="1" as="geometry">
            <mxPoint x="465" y="140" as="sourcePoint" />
            <Array as="points">
              <mxPoint x="500" y="150" />
            </Array>
          </mxGeometry>
        </mxCell>
        <mxCell id="YnuXroIP8cR0UTHa-X0N-57" value="&lt;b&gt;MQTT异步通知防区状态改变&lt;/b&gt;" style="html=1;verticalAlign=bottom;endArrow=open;dashed=1;endSize=8;edgeStyle=elbowEdgeStyle;elbow=vertical;curved=0;rounded=0;fillColor=#FBFF87;" edge="1" parent="YnuXroIP8cR0UTHa-X0N-111">
          <mxGeometry x="-0.0012" relative="1" as="geometry">
            <mxPoint x="525" y="722" as="sourcePoint" />
            <mxPoint x="114.5" y="722" as="targetPoint" />
            <mxPoint as="offset" />
          </mxGeometry>
        </mxCell>
        <mxCell id="YnuXroIP8cR0UTHa-X0N-59" value="Loop" style="shape=umlFrame;whiteSpace=wrap;html=1;pointerEvents=0;recursiveResize=0;container=1;collapsible=0;width=50;" vertex="1" parent="YnuXroIP8cR0UTHa-X0N-111">
          <mxGeometry x="460" y="733" width="360" height="90" as="geometry" />
        </mxCell>
        <mxCell id="YnuXroIP8cR0UTHa-X0N-62" value="" style="html=1;points=[];perimeter=orthogonalPerimeter;outlineConnect=0;targetShapes=umlLifeline;portConstraint=eastwest;newEdgeStyle={&quot;edgeStyle&quot;:&quot;elbowEdgeStyle&quot;,&quot;elbow&quot;:&quot;vertical&quot;,&quot;curved&quot;:0,&quot;rounded&quot;:0};fillColor=#FFBE7D;" vertex="1" parent="YnuXroIP8cR0UTHa-X0N-59">
          <mxGeometry x="295" y="15" width="10" height="55" as="geometry" />
        </mxCell>
        <mxCell id="YnuXroIP8cR0UTHa-X0N-63" value="消警事件" style="html=1;verticalAlign=bottom;startArrow=oval;endArrow=block;startSize=8;edgeStyle=elbowEdgeStyle;elbow=vertical;curved=0;rounded=0;" edge="1" parent="YnuXroIP8cR0UTHa-X0N-111">
          <mxGeometry relative="1" as="geometry">
            <mxPoint x="535" y="753" as="sourcePoint" />
            <mxPoint x="755" y="753" as="targetPoint" />
          </mxGeometry>
        </mxCell>
        <mxCell id="YnuXroIP8cR0UTHa-X0N-65" value="摄像头转到预置位（）" style="html=1;verticalAlign=bottom;endArrow=block;edgeStyle=elbowEdgeStyle;elbow=vertical;curved=0;rounded=0;" edge="1" target="YnuXroIP8cR0UTHa-X0N-64" parent="YnuXroIP8cR0UTHa-X0N-111" source="YnuXroIP8cR0UTHa-X0N-62">
          <mxGeometry x="0.0095" relative="1" as="geometry">
            <mxPoint x="905" y="717" as="sourcePoint" />
            <Array as="points">
              <mxPoint x="940" y="757" />
            </Array>
            <mxPoint as="offset" />
          </mxGeometry>
        </mxCell>
        <mxCell id="YnuXroIP8cR0UTHa-X0N-67" value="&lt;b&gt;MQTT通知消警&lt;/b&gt;" style="html=1;verticalAlign=bottom;endArrow=open;dashed=1;endSize=8;edgeStyle=elbowEdgeStyle;elbow=vertical;curved=0;rounded=0;fillColor=#FBFF87;" edge="1" parent="YnuXroIP8cR0UTHa-X0N-111">
          <mxGeometry x="0.4832" y="-3" relative="1" as="geometry">
            <mxPoint x="755" y="790" as="sourcePoint" />
            <mxPoint x="114.5" y="790" as="targetPoint" />
            <mxPoint as="offset" />
          </mxGeometry>
        </mxCell>
        <mxCell id="YnuXroIP8cR0UTHa-X0N-72" value="&lt;b&gt;MQTT异步通知防区状态改变&lt;/b&gt;" style="html=1;verticalAlign=bottom;endArrow=open;dashed=1;endSize=8;edgeStyle=elbowEdgeStyle;elbow=vertical;curved=0;rounded=0;" edge="1" parent="YnuXroIP8cR0UTHa-X0N-111">
          <mxGeometry x="-0.0049" relative="1" as="geometry">
            <mxPoint x="525" y="993" as="sourcePoint" />
            <mxPoint x="115" y="993" as="targetPoint" />
            <mxPoint as="offset" />
          </mxGeometry>
        </mxCell>
        <mxCell id="YnuXroIP8cR0UTHa-X0N-73" value="&lt;b&gt;MQTT异步通知防区状态改变&lt;/b&gt;" style="html=1;verticalAlign=bottom;endArrow=open;dashed=1;endSize=8;edgeStyle=elbowEdgeStyle;elbow=vertical;curved=0;rounded=0;" edge="1" parent="YnuXroIP8cR0UTHa-X0N-111">
          <mxGeometry x="-0.0049" relative="1" as="geometry">
            <mxPoint x="525" y="1097" as="sourcePoint" />
            <mxPoint x="115" y="1097" as="targetPoint" />
            <mxPoint as="offset" />
          </mxGeometry>
        </mxCell>
        <mxCell id="YnuXroIP8cR0UTHa-X0N-78" value="&lt;b&gt;MQTT异步通知防区报警&lt;/b&gt;" style="html=1;verticalAlign=bottom;endArrow=open;dashed=1;endSize=8;edgeStyle=elbowEdgeStyle;elbow=vertical;curved=0;rounded=0;fillColor=#FBFF87;" edge="1" parent="YnuXroIP8cR0UTHa-X0N-111">
          <mxGeometry x="-0.0049" relative="1" as="geometry">
            <mxPoint x="525" y="241" as="sourcePoint" />
            <mxPoint x="115" y="241" as="targetPoint" />
            <mxPoint as="offset" />
          </mxGeometry>
        </mxCell>
        <mxCell id="YnuXroIP8cR0UTHa-X0N-84" value="触发告警事件" style="html=1;verticalAlign=bottom;endArrow=block;edgeStyle=elbowEdgeStyle;elbow=vertical;curved=0;rounded=0;" edge="1" parent="YnuXroIP8cR0UTHa-X0N-111">
          <mxGeometry relative="1" as="geometry">
            <mxPoint x="535" y="304" as="sourcePoint" />
            <mxPoint x="755" y="304" as="targetPoint" />
          </mxGeometry>
        </mxCell>
        <mxCell id="YnuXroIP8cR0UTHa-X0N-85" value="&lt;b&gt;站内信、短信、邮件、视频全局弹出&lt;/b&gt;" style="html=1;verticalAlign=bottom;endArrow=open;dashed=1;endSize=8;edgeStyle=elbowEdgeStyle;elbow=vertical;curved=0;rounded=0;fillColor=#FBFF87;" edge="1" parent="YnuXroIP8cR0UTHa-X0N-111">
          <mxGeometry x="0.3583" relative="1" as="geometry">
            <mxPoint x="114.5" y="354" as="targetPoint" />
            <mxPoint x="755" y="354" as="sourcePoint" />
            <mxPoint as="offset" />
          </mxGeometry>
        </mxCell>
        <mxCell id="YnuXroIP8cR0UTHa-X0N-91" value="摄像头转到预置位（）" style="html=1;verticalAlign=bottom;endArrow=block;edgeStyle=elbowEdgeStyle;elbow=vertical;curved=0;rounded=0;exitX=1;exitY=0.75;exitDx=0;exitDy=0;exitPerimeter=0;" edge="1" target="YnuXroIP8cR0UTHa-X0N-90" parent="YnuXroIP8cR0UTHa-X0N-111" source="YnuXroIP8cR0UTHa-X0N-86">
          <mxGeometry x="0.0049" relative="1" as="geometry">
            <mxPoint x="905" y="359" as="sourcePoint" />
            <mxPoint as="offset" />
          </mxGeometry>
        </mxCell>
        <mxCell id="YnuXroIP8cR0UTHa-X0N-104" value="下发视频录像和抓图任务（）" style="html=1;verticalAlign=bottom;endArrow=block;edgeStyle=elbowEdgeStyle;elbow=vertical;curved=0;rounded=0;" edge="1" parent="YnuXroIP8cR0UTHa-X0N-111">
          <mxGeometry relative="1" as="geometry">
            <mxPoint x="765" y="452" as="sourcePoint" />
            <mxPoint x="975" y="452" as="targetPoint" />
            <mxPoint as="offset" />
          </mxGeometry>
        </mxCell>
        <mxCell id="YnuXroIP8cR0UTHa-X0N-23" value="事件处理ALT" style="shape=umlFrame;whiteSpace=wrap;html=1;pointerEvents=0;recursiveResize=0;container=0;collapsible=0;width=170;movable=1;resizable=1;rotatable=1;deletable=1;editable=1;locked=0;connectable=1;" vertex="1" parent="YnuXroIP8cR0UTHa-X0N-111">
          <mxGeometry x="50" y="180" width="818.5117967332122" height="940" as="geometry" />
        </mxCell>
        <mxCell id="YnuXroIP8cR0UTHa-X0N-44" value="&lt;b&gt;[处理子系统消警]&lt;/b&gt;" style="line;strokeWidth=1;dashed=1;labelPosition=center;verticalLabelPosition=bottom;align=left;verticalAlign=top;spacingLeft=20;spacingTop=15;html=1;whiteSpace=wrap;" vertex="1" parent="YnuXroIP8cR0UTHa-X0N-111">
          <mxGeometry x="50" y="609.5" width="818.5117967332122" height="33.57142857142857" as="geometry" />
        </mxCell>
        <mxCell id="YnuXroIP8cR0UTHa-X0N-46" value="&lt;b&gt;[处理防区旁路]&lt;/b&gt;" style="line;strokeWidth=1;dashed=1;labelPosition=center;verticalLabelPosition=bottom;align=left;verticalAlign=top;spacingLeft=20;spacingTop=15;html=1;whiteSpace=wrap;" vertex="1" parent="YnuXroIP8cR0UTHa-X0N-111">
          <mxGeometry x="51.488203266787664" y="894.7857142857142" width="818.5117967332122" height="33.57142857142857" as="geometry" />
        </mxCell>
        <mxCell id="YnuXroIP8cR0UTHa-X0N-47" value="&lt;b&gt;[处理防区旁路恢复]&lt;/b&gt;" style="line;strokeWidth=1;dashed=1;labelPosition=center;verticalLabelPosition=bottom;align=left;verticalAlign=top;spacingLeft=20;spacingTop=15;html=1;whiteSpace=wrap;" vertex="1" parent="YnuXroIP8cR0UTHa-X0N-111">
          <mxGeometry x="51.488203266787664" y="1001.3571428571429" width="818.5117967332122" height="33.57142857142857" as="geometry" />
        </mxCell>
        <mxCell id="YnuXroIP8cR0UTHa-X0N-48" value="&lt;b&gt;[处理防区报警]&lt;/b&gt;" style="text;html=1;" vertex="1" parent="YnuXroIP8cR0UTHa-X0N-111">
          <mxGeometry x="81.25226860254082" y="314.2857142857143" width="148.82032667876587" height="67.14285714285714" as="geometry" />
        </mxCell>
        <mxCell id="YnuXroIP8cR0UTHa-X0N-97" value="异步返回录像、抓图结果" style="html=1;verticalAlign=bottom;endArrow=open;dashed=1;endSize=8;edgeStyle=elbowEdgeStyle;elbow=vertical;curved=0;rounded=0;" edge="1" source="YnuXroIP8cR0UTHa-X0N-103" parent="YnuXroIP8cR0UTHa-X0N-111">
          <mxGeometry relative="1" as="geometry">
            <mxPoint x="765" y="482" as="targetPoint" />
            <mxPoint x="940" y="778" as="sourcePoint" />
          </mxGeometry>
        </mxCell>
        <mxCell id="YnuXroIP8cR0UTHa-X0N-108" value="" style="html=1;points=[];perimeter=orthogonalPerimeter;outlineConnect=0;targetShapes=umlLifeline;portConstraint=eastwest;newEdgeStyle={&quot;edgeStyle&quot;:&quot;elbowEdgeStyle&quot;,&quot;elbow&quot;:&quot;vertical&quot;,&quot;curved&quot;:0,&quot;rounded&quot;:0};fillColor=#FFBE7D;" vertex="1" parent="YnuXroIP8cR0UTHa-X0N-111">
          <mxGeometry x="760" y="517" width="10" height="50" as="geometry" />
        </mxCell>
        <mxCell id="YnuXroIP8cR0UTHa-X0N-109" value="录像、抓图保存" style="html=1;align=left;spacingLeft=2;endArrow=block;rounded=0;edgeStyle=orthogonalEdgeStyle;curved=0;rounded=0;" edge="1" target="YnuXroIP8cR0UTHa-X0N-108" parent="YnuXroIP8cR0UTHa-X0N-111">
          <mxGeometry relative="1" as="geometry">
            <mxPoint x="765" y="482" as="sourcePoint" />
            <Array as="points">
              <mxPoint x="795" y="512" />
            </Array>
          </mxGeometry>
        </mxCell>
        <mxCell id="YnuXroIP8cR0UTHa-X0N-110" value="入侵事件" style="shape=umlFrame;whiteSpace=wrap;html=1;pointerEvents=0;" vertex="1" parent="YnuXroIP8cR0UTHa-X0N-111">
          <mxGeometry width="1120" height="1190" as="geometry" />
        </mxCell>
      </root>
    </mxGraphModel>
  </diagram>
</mxfile>
